<svg width="32" height="42" viewBox="0 0 32 42" fill="none" xmlns="http://www.w3.org/2000/svg">
<path d="M31.0002 21.0143C31.0002 14.6757 31.0002 8.30863 31.0002 1.97009C31.0002 0.399728 30.5692 0 29.0178 0C20.0252 0 11.0039 0 2.01128 0C0.431114 0 0.0288906 0.42828 0.0288906 1.94154C0.0288906 14.6472 0.0288906 27.3528 0.0288906 40.0585C0.0288906 40.8008 0.0863514 41.4575 0.862068 41.8287C1.63779 42.1999 2.18366 41.7716 2.75827 41.3147C6.78051 38.1169 10.8315 34.9191 14.825 31.6927C15.3709 31.2644 15.6869 31.2644 16.2328 31.6927C20.255 34.9477 24.3347 38.1455 28.3857 41.3718C28.9316 41.8001 29.4775 42.1713 30.2244 41.8001C30.9427 41.4575 31.0576 40.8294 31.0576 40.1156C31.0002 33.777 31.0002 27.4099 31.0002 21.0143Z" fill="white"/>
</svg>
