<svg width="175" height="175" viewBox="0 0 175 175" fill="none" xmlns="http://www.w3.org/2000/svg">
<g id="Mangr boton">
<g id="Mangr menu Fondo">
<rect id="Rectangle 9" opacity="0.2" x="5" y="5" width="165" height="165" rx="24" stroke="white" stroke-width="10"/>
</g>
<g id="Mangr ico">
<path id="Vector" d="M88.7718 120.698C88.7718 122.025 88.8452 123.279 88.7718 124.606C88.6249 126.597 87.817 127.408 85.9074 127.482C82.8228 127.556 79.7382 127.556 76.6535 127.482C74.8174 127.408 74.0096 126.597 73.8627 124.827C73.7893 124.237 73.8627 123.721 73.8627 123.131C73.8627 109.12 73.8627 95.1091 73.8627 81.1719C73.8627 80.5819 73.8627 79.992 73.8627 79.4758C74.0096 77.7797 74.8175 76.8211 76.4333 76.8211C79.6648 76.7474 82.8963 76.7474 86.1278 76.8211C87.6701 76.8948 88.478 77.7797 88.6984 79.2546C88.7718 79.992 88.7718 80.7294 88.7718 81.4668C88.7718 91.1271 88.7718 100.861 88.7718 110.521C88.7718 111.406 88.7718 112.291 88.7718 113.176C88.9187 113.176 88.9921 113.176 89.139 113.25C89.2859 112.733 89.3593 112.144 89.5062 111.627C90.1672 109.71 90.5345 107.572 91.6361 105.949C93.4722 103.147 93.6925 100.271 93.6191 97.1739C93.5456 87.0712 93.6191 65.9073 93.6191 55.8046C93.6191 55.0672 93.6191 54.3298 93.6926 53.5923C93.8395 52.265 94.5739 51.4538 95.8959 51.3801C99.3478 51.3063 102.873 51.3063 106.325 51.3801C107.647 51.3801 108.381 52.265 108.455 53.5923C108.528 54.256 108.455 54.9197 108.455 55.5096C108.455 63.1788 108.455 81.8356 108.455 89.5047C108.455 90.3896 108.455 91.2745 108.455 92.3069C110.217 92.0857 111.613 91.9382 113.229 91.717C113.229 90.7583 113.229 89.8734 113.229 88.9885C113.229 76.9686 113.229 53.8136 113.229 41.7936C113.229 38.6227 113.816 38.0328 116.827 38.0328C119.618 38.0328 122.336 37.959 125.127 38.0328C127.33 38.1065 127.991 38.7702 128.138 40.9825C128.138 41.6461 128.138 42.3098 128.138 42.8998C128.138 56.0258 128.138 80.1395 128.138 93.2656C128.138 94.1505 128.138 95.0354 128.138 96.0678C133.719 100.271 137.392 105.728 138.64 112.733C139.522 118.043 138.787 123.131 136.437 127.924C131.883 137.363 121.601 142.968 111.466 141.862C102.212 140.903 91.8564 134.709 88.7718 120.698ZM94.0598 117.011C94.0598 127.924 102.873 136.921 113.816 136.995C124.759 137.068 133.793 128.072 133.866 117.011C133.94 105.949 125.053 97.0264 113.963 96.9527C102.873 96.9527 94.0598 105.875 94.0598 117.011ZM118.296 43.1947C118.296 55.9521 118.296 79.5496 118.296 92.1594C119.839 92.6019 121.307 92.9706 122.776 93.3393C122.776 80.2132 122.776 56.1733 122.776 43.1947C121.234 43.1947 119.912 43.1947 118.296 43.1947ZM79.2241 81.9093C78.71 84.6378 78.7835 120.476 79.371 122.467C80.2523 122.467 81.207 122.467 82.2353 122.467C82.6025 122.467 83.0432 122.394 83.6307 122.32C83.6307 108.825 83.6307 95.4041 83.6307 81.9093C81.8681 81.9093 80.5461 81.9093 79.2241 81.9093ZM98.6867 56.3208C98.6867 66.276 98.6867 86.9975 98.6867 96.8789C100.302 95.9203 101.771 95.0354 103.167 94.2242C103.167 85.2277 103.167 65.3173 103.167 56.3208C101.624 56.3208 100.229 56.3208 98.6867 56.3208Z" fill="white"/>
<path id="Vector_2" d="M68.8681 104.917C68.8681 111.037 68.8681 117.084 68.8681 123.205C68.8681 126.597 68.1337 127.26 64.6819 127.334C62.2582 127.334 59.8346 127.334 57.4109 127.334C54.7669 127.26 53.959 126.449 53.959 123.795C53.959 111.185 53.959 98.5748 53.959 85.9649C53.959 83.3102 54.8403 82.499 57.4843 82.499C60.1283 82.499 62.8458 82.499 65.4897 82.499C67.9868 82.499 68.7947 83.3839 68.8681 85.8912C68.8681 92.233 68.8681 98.5748 68.8681 104.917ZM63.5802 122.32C63.5802 110.668 63.5802 99.2385 63.5802 87.661C62.0379 87.661 60.7159 87.661 59.247 87.661C59.247 99.2385 59.247 110.742 59.247 122.32C60.6424 122.32 61.9644 122.32 63.5802 122.32Z" fill="white"/>
<path id="Vector_3" d="M48.9642 115.757C48.9642 118.411 48.9642 121.14 48.9642 123.795C48.9642 126.449 48.0829 127.26 45.4389 127.334C42.7949 127.408 40.0775 127.408 37.4335 127.334C34.9364 127.26 34.0551 126.449 34.0551 123.942C33.9816 118.485 33.9816 113.102 34.0551 107.645C34.0551 105.138 34.9364 104.327 37.4335 104.327C40.0775 104.327 42.7949 104.327 45.4389 104.327C48.2298 104.327 48.8908 105.064 48.9642 107.793C48.9642 110.374 48.9642 113.102 48.9642 115.757ZM39.2696 109.341C39.2696 113.766 39.2696 117.969 39.2696 122.32C40.8119 122.32 42.2074 122.32 43.7497 122.32C43.7497 117.969 43.7497 113.692 43.7497 109.341C42.2074 109.341 40.8119 109.341 39.2696 109.341Z" fill="white"/>
<path id="Vector_4" d="M117.121 130.8C116.754 133.603 115.946 134.635 114.403 134.635C112.935 134.635 112.2 133.75 111.686 131.169C110.584 130.505 109.409 129.915 108.455 129.104C106.692 127.556 105.737 125.491 105.811 123.057C105.884 121.583 106.692 120.698 107.94 120.55C109.115 120.403 110.291 121.214 110.658 122.467C110.805 122.91 110.731 123.426 110.878 123.869C111.392 125.343 112.861 126.302 114.257 126.155C115.726 125.933 116.974 124.68 117.047 123.205C117.121 121.583 116.093 120.255 114.403 119.96C113.669 119.813 112.935 119.813 112.274 119.665C108.895 118.928 106.472 116.347 105.957 113.102C105.443 109.489 106.986 106.244 110.144 104.474C110.658 104.179 111.172 103.958 111.76 103.663C112.2 102.41 111.686 100.64 113.155 99.8287C113.596 99.5337 114.257 99.46 114.771 99.46C116.386 99.5337 116.901 100.492 117.194 103.663C118.369 104.696 119.545 105.581 120.499 106.687C121.748 108.088 122.262 109.784 122.189 111.627C122.189 113.029 121.307 113.987 119.985 114.135C118.737 114.282 117.635 113.545 117.194 112.291C117.048 111.849 117.121 111.332 116.974 110.89C116.533 109.415 115.064 108.383 113.669 108.604C112.127 108.751 110.805 110.153 110.805 111.775C110.805 113.323 111.759 114.503 113.375 114.872C114.036 115.02 114.624 115.02 115.285 115.167C118.737 115.757 120.94 117.822 121.895 121.214C122.85 124.606 121.528 127.924 118.663 129.989C118.149 130.21 117.635 130.505 117.121 130.8Z" fill="white"/>
</g>
</g>
</svg>
