<svg width="243" height="258" viewBox="0 0 243 258" fill="none" xmlns="http://www.w3.org/2000/svg">
<path d="M139.579 153.752C139.579 163.127 139.579 157.658 139.579 167.033C141.717 167.033 143.856 167.033 145.994 167.033C148.522 167.033 151.049 167.033 153.576 167.033C161.546 167.228 167.378 171.33 170.294 178.752C170.489 179.338 170.683 179.924 171.072 180.509C192.456 180.509 199.26 180.509 221.033 180.509C221.033 178.947 221.227 177.384 221.227 176.017C221.421 171.525 222.588 170.353 227.059 170.353C230.558 170.353 234.058 170.353 237.362 170.353C241.445 170.353 243 171.72 243 176.017C243 188.322 243 200.431 243 212.736C243 224.65 243 236.564 243 248.283C243 252.971 241.639 254.338 236.974 254.338C233.474 254.338 229.975 254.338 226.67 254.338C222.394 254.338 221.227 252.971 221.033 248.674C221.033 247.307 221.033 246.135 221.033 244.377C199.454 244.377 192.261 244.377 170.683 244.377C170.489 244.963 170.1 245.549 169.906 246.33C166.99 253.557 161.352 257.658 153.576 257.854C132.192 258.049 110.808 258.049 89.424 257.854C81.648 257.854 76.2048 253.752 73.0944 246.525C72.9 245.939 72.5112 245.158 72.1224 244.377C50.7384 244.377 43.7399 244.377 21.7727 244.377C21.7727 246.33 21.7727 248.088 21.7727 249.846C21.5783 253.166 20.2176 254.533 16.7184 254.533C12.8304 254.533 9.13671 254.533 5.2487 254.533C1.36071 254.533 0 253.166 0 249.064C0 238.713 0 228.166 0 217.814C0 204.142 0 190.47 0 176.799C0 171.916 1.36071 170.744 6.22071 170.744C9.7199 170.744 13.2192 170.744 16.524 170.744C20.412 170.744 21.5783 172.111 21.7727 176.017C21.7727 177.58 21.7727 179.142 21.7727 180.9C43.3511 180.9 50.3496 180.9 71.928 180.9C72.1224 180.705 72.3167 180.314 72.5111 179.924C76.2047 171.134 81.4535 167.423 90.9791 167.423C95.0615 167.423 99.1439 167.423 103.421 167.423C103.421 158.244 103.421 163.713 103.421 154.142C101.671 154.142 99.9216 154.142 98.3664 154.142C94.6728 153.947 93.5064 152.775 93.312 149.064C93.312 145.158 93.1176 141.447 93.312 137.541C93.312 135.392 92.7288 134.22 90.5904 133.048C64.9296 119.376 51.516 97.8919 51.516 68.7902C51.516 33.8292 78.732 4.33684 113.53 0.430577C148.91 -3.47569 181.375 19.5713 189.346 54.3371C196.538 85.7825 181.375 118.205 152.41 132.853C150.077 134.025 149.105 135.392 149.299 138.126C149.493 141.642 149.493 145.353 149.299 148.869C149.299 152.775 147.938 153.947 144.05 154.142C143.078 153.752 141.523 153.752 139.579 153.752ZM122.083 175.041C111.78 175.041 101.477 175.041 91.368 175.041C83.9808 175.041 80.2871 178.752 80.2871 185.978C80.2871 203.556 80.2871 220.939 80.2871 238.518C80.2871 245.744 84.1752 249.65 91.368 249.65C111.586 249.65 131.997 249.65 152.215 249.65C159.408 249.65 163.296 245.744 163.296 238.518C163.296 220.939 163.296 203.556 163.296 185.978C163.296 178.556 159.602 175.041 152.215 175.041C142.106 175.041 131.997 175.041 122.083 175.041ZM71.928 189.103C50.3496 189.103 43.74 189.103 22.356 189.103C22.356 204.728 22.356 220.158 22.356 235.588C43.74 235.588 50.544 235.588 71.928 235.588C71.928 219.963 71.928 204.728 71.928 189.103ZM221.033 189.103C199.649 189.103 192.845 189.103 171.655 189.103C171.655 204.728 171.655 220.158 171.655 235.588C193.039 235.588 199.843 235.588 221.033 235.588C221.033 219.963 221.033 204.533 221.033 189.103ZM120.722 7.65717C86.5079 8.24311 59.0975 36.7589 59.6807 70.9387C60.2639 104.923 88.6464 132.462 122.666 131.876C156.686 131.29 184.097 102.775 183.514 68.3996C182.93 34.6104 154.548 7.07123 120.722 7.65717ZM131.026 166.838C131.026 157.658 131.026 163.127 131.026 153.947C124.61 153.947 118.39 153.947 112.169 153.947C112.169 163.127 112.169 157.658 112.169 166.838C118.584 166.838 124.61 166.838 131.026 166.838ZM8.55365 246.135C9.52565 246.135 10.3031 246.33 11.2751 246.33C12.0527 246.33 12.8304 246.33 13.8024 246.135C13.8024 223.478 13.8024 201.213 13.8024 178.752C12.0528 178.752 10.3032 178.752 8.55365 178.752C8.55365 201.408 8.55365 223.674 8.55365 246.135ZM234.835 246.33C234.835 223.674 234.835 201.408 234.835 178.947C232.891 178.947 231.336 178.947 229.586 178.947C229.586 201.603 229.586 223.869 229.586 246.33C231.336 246.33 232.891 246.33 234.835 246.33ZM141.329 145.548C141.329 142.619 141.329 140.08 141.329 137.345C128.11 140.861 115.085 140.861 101.866 137.345C101.866 140.275 101.866 142.814 101.866 145.548C115.085 145.548 128.11 145.548 141.329 145.548Z" fill="white"/>
<path d="M149.493 222.893C149.493 220.549 149.493 218.4 149.493 216.057C149.687 213.127 151.242 211.369 153.381 211.369C155.519 211.369 157.463 213.127 157.463 215.861C157.657 220.549 157.657 225.236 157.463 229.729C157.463 232.658 155.713 234.221 153.381 234.221C151.048 234.221 149.687 232.658 149.493 229.729C149.298 227.385 149.493 225.236 149.493 222.893Z" fill="white"/>
<path d="M177.876 69.9622C177.876 100.626 152.604 126.212 122.083 126.212C91.1736 126.212 65.7072 101.017 65.5128 70.1575C65.3184 38.9073 90.5904 13.3213 121.889 13.3213C152.604 13.3213 177.682 38.712 177.876 69.9622ZM82.2312 97.5013C92.5344 111.369 105.948 118.4 122.861 118.009C138.607 117.619 151.243 110.587 160.769 97.5013C156.881 94.3763 156.103 92.6185 157.27 90.4701C159.408 87.1497 162.13 88.9075 165.046 89.8841C167.379 84.6107 168.934 79.5325 169.128 74.0637C164.268 73.2825 162.713 72.3059 162.713 69.7668C162.713 65.4699 166.406 65.8606 169.322 65.0793C168.545 59.6105 167.573 54.3371 164.851 49.4543C162.13 50.6261 159.214 52.384 157.27 49.0636C155.131 45.548 158.436 43.7902 160.963 41.6417C156.881 37.7355 153.187 33.8292 149.299 29.9229C146.966 32.462 145.8 35.7823 142.106 33.8292C138.413 31.6807 140.746 28.751 141.523 25.8213C136.274 23.8682 131.22 21.7198 125.777 21.9151C125.194 26.6026 124.222 28.1651 121.889 28.1651C117.612 28.3604 117.806 24.6495 117.223 21.7198C111.586 21.9151 106.531 23.6729 101.282 25.8213C102.449 28.751 104.004 31.4854 101.088 33.4386C97.5889 35.587 95.8393 32.6573 93.5065 29.9229C89.6185 33.8292 85.7304 37.7355 82.0368 41.4464C86.1192 45.1574 87.0913 46.9152 85.7305 48.8683C83.5921 52.1886 80.6761 50.4308 77.9545 49.4543C75.6217 54.7277 74.0666 59.8059 73.6778 65.2746C78.3434 65.8606 80.2872 67.0325 80.0928 69.5715C79.8984 73.4778 76.5938 73.4778 73.6778 73.8684C74.0666 79.5325 75.4273 84.806 77.7601 89.6888C82.6201 87.931 84.5641 88.3216 85.7305 90.6654C86.8969 93.0091 86.1192 94.7669 82.2312 97.5013Z" fill="white"/>
<path d="M120.917 80.704C117.418 80.3134 114.113 78.7509 112.169 75.04C110.225 71.329 110.225 67.6181 112.363 64.1024C113.335 62.5399 114.502 61.1727 115.863 60.0008C120.723 55.118 125.777 50.4305 130.831 45.5476C132.387 43.9851 134.331 43.2039 136.275 44.3758C138.413 45.5476 138.607 47.5008 138.024 49.6492C136.08 57.2664 134.331 65.079 131.998 72.5009C130.637 77.7743 126.36 80.8994 120.917 80.704ZM127.138 61.368C126.749 61.1727 126.555 60.9774 126.166 60.7821C123.833 63.1258 121.5 65.4696 119.556 68.0087C118.39 69.5712 118.584 71.329 120.528 72.3056C122.278 73.2821 123.639 72.5009 124.222 70.7431C125.194 67.6181 126.166 64.493 127.138 61.368Z" fill="white"/>
<path d="M121.695 101.017C117.224 101.017 112.947 101.017 108.476 101.017C105.365 101.017 103.421 98.4776 104.199 95.7432C104.782 93.79 106.337 93.0088 108.281 93.0088C117.224 93.0088 126.166 93.0088 135.108 93.0088C137.83 93.0088 139.191 94.5713 139.385 96.9151C139.385 99.2588 137.83 101.017 134.914 101.017C130.443 101.212 125.972 101.017 121.695 101.017Z" fill="white"/>
</svg>
