<svg width="175" height="175" viewBox="0 0 175 175" fill="none" xmlns="http://www.w3.org/2000/svg">
<g id="Mangr boton">
<g id="Mangr menu Fondo">
<rect id="Rectangle 9" opacity="0.2" x="5" y="5" width="165" height="165" rx="24" stroke="white" stroke-width="10"/>
</g>
<g id="Mangr ico">
<g id="Frame" clip-path="url(#clip0_66_17494)">
<path id="Vector" d="M140.308 107.27C140.112 105.7 139.852 104.129 139.331 102.624C137.897 98.6332 134.706 96.3432 130.927 94.8383C128.843 94.0532 126.693 93.4643 124.608 92.8755C123.566 92.5483 122.589 92.1557 122.459 90.978C124.152 89.3423 125.846 87.9029 127.344 86.2671C130.471 82.734 132.751 78.6774 133.012 73.8356C133.142 70.695 132.947 67.489 132.882 64.283C132.816 61.8621 132.1 59.5067 131.253 57.2167C128.191 49.4306 120.439 44 112.166 44C103.698 44 96.0762 49.2997 92.9494 57.2167C92.6237 58.0672 92.298 58.9832 91.9072 59.9647C87.6729 58.5907 83.569 58.5907 79.3999 60.0301C78.9439 58.9178 78.6182 57.9364 78.2925 57.0204C74.0582 46.2246 61.4858 41.0557 50.9979 45.832C43.7671 49.1689 39.8586 55.0575 38.7512 62.8436C38.3603 65.5916 38.4906 68.405 38.3603 71.2185C38.0346 77.1725 40.3797 82.1451 44.2231 86.4634C45.6563 88.0337 47.3499 89.4732 48.9785 91.0435C48.1968 92.4829 48.1317 92.4829 46.7637 92.9409C44.5488 93.5952 42.334 94.184 40.2495 94.9692C35.4941 96.8666 31.9764 100.073 31.2598 105.438C30.869 108.251 30.9993 111.13 31.0644 114.009C31.1296 115.579 32.3021 116.822 33.9307 117.15C34.6472 117.28 35.4289 117.346 36.2106 117.346C42.8551 117.346 49.5648 117.346 56.2093 117.346H58.4892C57.0561 121.01 57.3167 124.478 57.3818 128.011C57.3818 128.927 57.7075 129.908 58.1635 130.693C58.8801 131.937 60.2481 132.329 61.6161 132.329C67.8046 132.329 74.0582 132.329 80.2467 132.329C80.7679 132.329 81.289 132.264 81.745 132.067C82.7873 131.675 83.3084 130.693 83.1781 129.647C83.0478 128.665 82.3313 127.945 81.289 127.749C80.7027 127.684 80.1816 127.684 79.5953 127.684C74.3839 127.684 69.1726 127.684 63.9612 127.684C63.3098 127.684 62.6583 127.618 61.8766 127.618C61.8766 125.59 61.7464 123.823 61.8766 122.057C62.0721 119.243 63.3098 116.888 65.8503 115.448C67.088 114.729 68.5211 114.205 69.824 113.616C70.8011 113.158 71.5828 113.355 72.4948 113.878C75.7519 115.841 79.0742 117.738 82.3313 119.701C84.5461 121.01 86.7609 121.01 88.9758 119.701C91.5814 118.131 94.1871 116.626 96.858 115.056C100.506 112.897 100.506 112.897 104.284 114.86C105.066 115.252 105.913 115.71 106.499 116.299C107.346 117.215 108.193 118.262 108.649 119.374C109.821 121.991 109.43 124.805 109.365 127.749H107.15C102.265 127.749 97.3791 127.749 92.4934 127.749C91.9072 127.749 91.3209 127.749 90.7997 127.815C89.8226 128.011 89.2363 128.6 89.0409 129.581C88.8455 130.563 89.2363 131.413 90.0832 131.871C90.6695 132.198 91.386 132.329 92.1026 132.329C97.9654 132.395 103.763 132.395 109.626 132.329C112.557 132.329 114.055 130.759 114.121 127.815C114.121 124.412 114.381 120.945 113.013 117.411H115.358C121.938 117.411 128.582 117.411 135.162 117.411C139.396 117.411 140.568 116.234 140.503 111.915C140.373 110.345 140.503 108.775 140.308 107.27ZM112.687 48.6455C120.961 48.9726 128.452 56.3007 128.517 65.3299C128.452 65.2644 128.517 74.4899 127.344 77.8922C125.195 84.108 120.244 88.0337 113.73 89.6694C111.45 90.2583 109.365 89.5386 107.281 88.6226C106.955 88.4917 106.629 87.8374 106.629 87.4449C106.499 86.4634 106.564 85.4166 106.564 84.3697C106.76 78.0231 105.652 72.0036 101.678 66.9002C101.548 66.7693 101.483 66.7039 101.353 66.573C100.832 65.9841 100.18 65.5261 99.6591 64.9373C98.9425 64.2176 98.2259 63.4978 97.5094 62.7781C97.1185 62.5818 96.7928 62.3201 96.4671 62.1238C97.1185 55.1884 104.089 48.3183 112.687 48.6455ZM120.505 96.3432C117.964 97.8481 115.554 99.2875 113.143 100.662C112.492 101.054 111.841 101.185 111.189 100.792C108.909 99.4184 106.629 98.1098 104.219 96.6703C104.805 95.4272 105.261 94.3149 105.848 93.0063C109.886 94.7075 113.925 94.7729 117.964 93.1372C118.811 94.184 119.593 95.1655 120.505 96.3432ZM85.0672 63.6287C93.9917 63.825 101.027 70.237 101.744 79.4625C101.678 79.3971 102.265 89.2114 101.483 91.5669C99.4636 97.2592 95.5551 101.25 90.1483 103.802C87.0215 105.242 83.8947 105.045 80.7679 103.606C76.4685 101.512 73.2114 98.3061 70.9314 94.1186C69.368 91.1743 69.368 82.6685 69.368 81.7525C69.368 81.5562 69.4983 80.2477 69.4983 79.8551C69.8891 74.4899 73.7976 63.367 85.0672 63.6287ZM43.8974 77.7614C42.8551 75.3405 42.79 72.7888 42.9203 70.1716C42.79 69.779 43.3111 64.283 43.1809 64.283C43.1809 61.6004 44.0277 59.3104 45.2654 57.1512C48.4574 51.5243 53.343 48.4492 59.7269 48.7109C66.176 48.9726 70.9314 52.3095 73.7325 58.2635C74.0582 58.9832 74.3839 59.6375 74.5794 60.3573C74.9702 61.6004 70.4754 65.2644 69.4331 67.031C64.6126 73.2468 64.4172 80.7057 64.6778 88.1646C61.0298 90.3237 57.5121 90.1929 54.0596 88.4263C49.4345 86.0708 46.0471 82.5377 43.8974 77.7614ZM67.1531 96.6703C64.7429 98.1098 62.3978 99.5492 59.9224 100.858C59.5315 101.054 58.7498 100.923 58.2938 100.727C55.8184 99.3529 53.4082 97.8481 50.8676 96.3432C51.7796 95.1655 52.4962 94.2495 53.343 93.1372C57.3818 94.8383 61.4206 94.7075 65.4595 93.0063C66.0457 94.3149 66.5669 95.4272 67.1531 96.6703ZM73.3417 107.793C71.192 108.448 68.9771 109.036 66.8274 109.887C65.3943 110.476 64.0263 111.392 62.6583 112.112C62.0721 112.439 61.4206 112.766 60.7692 112.766C52.6916 112.831 44.6791 112.766 36.6015 112.766C36.3409 112.766 36.0804 112.7 35.7547 112.635C35.7547 110.345 35.6244 108.186 35.8198 106.027C36.0152 103.802 37.2529 101.905 39.2072 100.727C40.7055 99.8109 42.3991 99.2221 44.0277 98.4369C44.8094 98.0444 45.4608 98.4369 46.1774 98.8295C49.3694 100.727 52.6265 102.559 55.8184 104.522C58.2287 106.027 60.5738 105.961 62.9841 104.456C65.1989 103.082 67.4789 101.839 69.6937 100.531C71.5828 102.297 73.4719 103.998 75.3611 105.765C75.2959 107.074 74.3839 107.466 73.3417 107.793ZM92.4283 112.308C90.6043 113.355 88.8455 114.402 87.0215 115.514C86.3049 115.972 85.5884 116.234 84.7415 115.71C82.3313 114.271 79.8559 112.766 77.2502 111.261C78.1622 110.149 78.8787 109.233 79.7907 108.055C83.6993 109.691 87.6729 109.691 91.5814 108.055C92.4934 109.167 93.21 110.083 94.0568 111.196C93.5357 111.588 92.9494 111.981 92.4283 112.308ZM135.683 112.57C135.162 112.635 134.575 112.7 134.054 112.7C126.367 112.7 118.746 112.7 111.059 112.7C110.342 112.7 109.496 112.57 108.909 112.177C106.238 110.28 103.177 109.167 100.05 108.317C99.2031 108.055 98.3562 107.793 97.5094 107.597C96.6625 107.401 96.2065 106.877 96.0111 105.896C97.9002 104.129 99.7893 102.428 101.744 100.596C103.958 101.905 106.238 103.148 108.388 104.522C110.864 106.092 113.209 106.027 115.684 104.522C118.811 102.624 122.068 100.858 125.195 98.8949C126.107 98.3715 126.888 98.1752 127.866 98.6332C129.234 99.2875 130.667 99.8109 131.97 100.596C134.119 101.905 135.357 103.868 135.618 106.354C135.813 108.317 135.683 110.41 135.683 112.57Z" fill="white"/>
</g>
</g>
</g>
<defs>
<clipPath id="clip0_66_17494">
<rect width="109.439" height="88.2637" fill="white" transform="translate(31 44)"/>
</clipPath>
</defs>
</svg>
