<svg width="175" height="175" viewBox="0 0 175 175" fill="none" xmlns="http://www.w3.org/2000/svg">
<g id="Mangr boton">
<g id="Mangr menu Fondo">
<rect id="Rectangle 9" opacity="0.2" x="5" y="5" width="165" height="165" rx="24" stroke="white" stroke-width="10"/>
</g>
<g id="Mangr ico">
<g id="Group">
<g id="Group_2">
<g id="Vector">
<path d="M102.114 134.683H82.1997C78.7016 134.683 75.8602 131.843 75.8602 128.346C75.8602 124.85 78.7016 122.01 82.1997 122.01H82.4743C81.5073 121.64 80.8268 120.709 80.8268 119.623V117.678H72.8635C72.6964 119.671 71.013 121.234 68.9715 121.234H68.1716C66.0226 121.234 64.2676 119.48 64.2676 117.331V109.372C64.2676 107.223 66.0226 105.469 68.1716 105.469H68.9715C71.1205 105.469 72.8755 107.223 72.8755 109.372V109.455H80.8268V105.827C80.8268 104.419 81.9729 103.273 83.3817 103.273H86.0798V98.9293H80.5999C79.3344 98.9293 78.2957 97.903 78.2957 96.6261V90.7546C78.2957 89.4896 79.3225 88.4514 80.5999 88.4514H86.0798V82.2696H77.2451C77.078 84.2625 75.3946 85.8259 73.353 85.8259H72.5531C70.4041 85.8259 68.6491 84.0716 68.6491 81.9235V73.9636C68.6491 71.8155 70.4041 70.0612 72.5531 70.0612H73.353C75.502 70.0612 77.257 71.8155 77.257 73.9636V74.0471H86.0798V69.4287C86.0798 68.3069 86.9872 67.3999 88.1094 67.3999H96.2159C97.3382 67.3999 98.2455 68.3069 98.2455 69.4287V74.0471H108.119V73.9636C108.119 71.8155 109.874 70.0612 112.023 70.0612H112.823C114.972 70.0612 116.727 71.8155 116.727 73.9636V81.9235C116.727 84.0716 114.972 85.8259 112.823 85.8259H112.023C109.981 85.8259 108.31 84.2625 108.131 82.2696H98.2336V88.4514H103.714C104.979 88.4514 106.018 89.4777 106.018 90.7546V96.6261C106.018 97.8911 104.991 98.9293 103.714 98.9293H98.2336V103.273H100.932C102.341 103.273 103.487 104.419 103.487 105.827V109.455H112.489V109.372C112.489 107.223 114.244 105.469 116.393 105.469H117.192C119.341 105.469 121.096 107.223 121.096 109.372V117.331C121.096 119.48 119.341 121.234 117.192 121.234H116.393C114.351 121.234 112.68 119.671 112.5 117.678H103.487V119.623C103.487 120.709 102.794 121.64 101.839 122.01H102.114C105.612 122.01 108.453 124.85 108.453 128.346C108.453 131.831 105.612 134.683 102.114 134.683ZM82.1997 125.172C80.4447 125.172 79.024 126.592 79.024 128.346C79.024 130.101 80.4447 131.521 82.1997 131.521H102.114C103.869 131.521 105.289 130.101 105.289 128.346C105.289 126.592 103.869 125.172 102.114 125.172H95.0698V119.014H100.323V114.515H115.652V117.343C115.652 117.737 115.987 118.083 116.393 118.083H117.192C117.598 118.083 117.933 117.749 117.933 117.343V109.383C117.933 108.99 117.598 108.644 117.192 108.644H116.393C115.999 108.644 115.652 108.978 115.652 109.383V112.629H100.323V106.448H95.0698V95.7788H102.854V91.6377H95.0698V79.1071H111.271V81.9354C111.271 82.3292 111.605 82.6753 112.011 82.6753H112.811C113.217 82.6753 113.551 82.3412 113.551 81.9354V73.9755C113.551 73.5817 113.217 73.2356 112.811 73.2356H112.011C111.605 73.2356 111.271 73.5697 111.271 73.9755V77.2215H95.0698V70.5863H89.2317V77.2215H74.0932V73.9755C74.0932 73.5817 73.759 73.2356 73.353 73.2356H72.5531C72.1592 73.2356 71.8129 73.5697 71.8129 73.9755V81.9354C71.8129 82.3292 72.1472 82.6753 72.5531 82.6753H73.353C73.759 82.6753 74.0932 82.3412 74.0932 81.9354V79.1071H89.2436V91.6138H81.4595V95.7549H89.2436V106.424H83.9905V112.606H69.7117V109.36C69.7117 108.966 69.3774 108.62 68.9715 108.62H68.1716C67.7776 108.62 67.4314 108.954 67.4314 109.36V117.32C67.4314 117.713 67.7657 118.059 68.1716 118.059H68.9715C69.3774 118.059 69.7117 117.725 69.7117 117.32V114.515H83.9905V119.014H89.2436V125.172H82.1997V125.172Z" fill="white"/>
<path d="M102.114 134.683H82.1997C78.7016 134.683 75.8602 131.843 75.8602 128.346C75.8602 124.85 78.7016 122.01 82.1997 122.01H82.4743C81.5073 121.64 80.8268 120.709 80.8268 119.623V117.678H72.8635C72.6964 119.671 71.013 121.234 68.9715 121.234H68.1716C66.0226 121.234 64.2676 119.48 64.2676 117.331V109.372C64.2676 107.223 66.0226 105.469 68.1716 105.469H68.9715C71.1205 105.469 72.8755 107.223 72.8755 109.372V109.455H80.8268V105.827C80.8268 104.419 81.9729 103.273 83.3817 103.273H86.0798V98.9293H80.5999C79.3344 98.9293 78.2957 97.903 78.2957 96.6261V90.7546C78.2957 89.4896 79.3225 88.4514 80.5999 88.4514H86.0798V82.2696H77.2451C77.078 84.2625 75.3946 85.8259 73.353 85.8259H72.5531C70.4041 85.8259 68.6491 84.0716 68.6491 81.9235V73.9636C68.6491 71.8155 70.4041 70.0612 72.5531 70.0612H73.353C75.502 70.0612 77.257 71.8155 77.257 73.9636V74.0471H86.0798V69.4287C86.0798 68.3069 86.9872 67.3999 88.1094 67.3999H96.2159C97.3382 67.3999 98.2455 68.3069 98.2455 69.4287V74.0471H108.119V73.9636C108.119 71.8155 109.874 70.0612 112.023 70.0612H112.823C114.972 70.0612 116.727 71.8155 116.727 73.9636V81.9235C116.727 84.0716 114.972 85.8259 112.823 85.8259H112.023C109.981 85.8259 108.31 84.2625 108.131 82.2696H98.2336V88.4514H103.714C104.979 88.4514 106.018 89.4777 106.018 90.7546V96.6261C106.018 97.8911 104.991 98.9293 103.714 98.9293H98.2336V103.273H100.932C102.341 103.273 103.487 104.419 103.487 105.827V109.455H112.489V109.372C112.489 107.223 114.244 105.469 116.393 105.469H117.192C119.341 105.469 121.096 107.223 121.096 109.372V117.331C121.096 119.48 119.341 121.234 117.192 121.234H116.393C114.351 121.234 112.68 119.671 112.5 117.678H103.487V119.623C103.487 120.709 102.794 121.64 101.839 122.01H102.114C105.612 122.01 108.453 124.85 108.453 128.346C108.453 131.831 105.612 134.683 102.114 134.683ZM82.1997 125.172C80.4447 125.172 79.024 126.592 79.024 128.346C79.024 130.101 80.4447 131.521 82.1997 131.521H102.114C103.869 131.521 105.289 130.101 105.289 128.346C105.289 126.592 103.869 125.172 102.114 125.172H95.0698V119.014H100.323V114.515H115.652V117.343C115.652 117.737 115.987 118.083 116.393 118.083H117.192C117.598 118.083 117.933 117.749 117.933 117.343V109.383C117.933 108.99 117.598 108.644 117.192 108.644H116.393C115.999 108.644 115.652 108.978 115.652 109.383V112.629H100.323V106.448H95.0698V95.7788H102.854V91.6377H95.0698V79.1071H111.271V81.9354C111.271 82.3292 111.605 82.6753 112.011 82.6753H112.811C113.217 82.6753 113.551 82.3412 113.551 81.9354V73.9755C113.551 73.5817 113.217 73.2356 112.811 73.2356H112.011C111.605 73.2356 111.271 73.5697 111.271 73.9755V77.2215H95.0698V70.5863H89.2317V77.2215H74.0932V73.9755C74.0932 73.5817 73.759 73.2356 73.353 73.2356H72.5531C72.1592 73.2356 71.8129 73.5697 71.8129 73.9755V81.9354C71.8129 82.3292 72.1472 82.6753 72.5531 82.6753H73.353C73.759 82.6753 74.0932 82.3412 74.0932 81.9354V79.1071H89.2436V91.6138H81.4595V95.7549H89.2436V106.424H83.9905V112.606H69.7117V109.36C69.7117 108.966 69.3774 108.62 68.9715 108.62H68.1716C67.7776 108.62 67.4314 108.954 67.4314 109.36V117.32C67.4314 117.713 67.7657 118.059 68.1716 118.059H68.9715C69.3774 118.059 69.7117 117.725 69.7117 117.32V114.515H83.9905V119.014H89.2436V125.172H82.1997V125.172Z" fill="white"/>
</g>
<g id="Vector_2">
<path d="M92.1566 46.0151C85.4231 46.0151 79.9551 51.4928 79.9551 58.2116C79.9551 64.9304 85.4231 70.4081 92.1566 70.4081C98.8901 70.4081 104.358 64.9304 104.358 58.2116C104.358 51.4928 98.8901 46.0151 92.1566 46.0151ZM90.7359 48.9986V57.5672L84.3008 63.2358C83.3696 61.7799 82.8085 60.0614 82.8085 58.2116C82.7965 53.5454 86.2588 49.6908 90.7359 48.9986ZM86.1991 65.36L92.0969 60.1688L97.6723 65.7419C96.1203 66.8756 94.2339 67.5797 92.1566 67.5797C89.8763 67.5678 87.8228 66.7205 86.1991 65.36ZM99.678 63.7251L93.5773 57.6268V48.9986C98.0544 49.6908 101.505 53.5335 101.505 58.2116C101.517 60.2762 100.812 62.1737 99.678 63.7251Z" fill="white"/>
<path d="M92.1566 46.0151C85.4231 46.0151 79.9551 51.4928 79.9551 58.2116C79.9551 64.9304 85.4231 70.4081 92.1566 70.4081C98.8901 70.4081 104.358 64.9304 104.358 58.2116C104.358 51.4928 98.8901 46.0151 92.1566 46.0151ZM90.7359 48.9986V57.5672L84.3008 63.2358C83.3696 61.7799 82.8085 60.0614 82.8085 58.2116C82.7965 53.5454 86.2588 49.6908 90.7359 48.9986ZM86.1991 65.36L92.0969 60.1688L97.6723 65.7419C96.1203 66.8756 94.2339 67.5797 92.1566 67.5797C89.8763 67.5678 87.8228 66.7205 86.1991 65.36ZM99.678 63.7251L93.5773 57.6268V48.9986C98.0544 49.6908 101.505 53.5335 101.505 58.2116C101.517 60.2762 100.812 62.1737 99.678 63.7251Z" fill="white"/>
</g>
<g id="Vector_3">
<path d="M93.9635 48.8913H90.3579C88.7581 48.8913 87.4688 47.5905 87.4688 46.0033V40.0721C87.4688 38.4849 88.7701 37.1841 90.3579 37.1841H93.9635C95.5633 37.1841 96.8527 38.4849 96.8527 40.0721V46.0033C96.8527 47.6024 95.5513 48.8913 93.9635 48.8913ZM90.6325 45.7288H93.6889V40.3466H90.6325V45.7288Z" fill="white"/>
<path d="M93.9635 48.8913H90.3579C88.7581 48.8913 87.4688 47.5905 87.4688 46.0033V40.0721C87.4688 38.4849 88.7701 37.1841 90.3579 37.1841H93.9635C95.5633 37.1841 96.8527 38.4849 96.8527 40.0721V46.0033C96.8527 47.6024 95.5513 48.8913 93.9635 48.8913ZM90.6325 45.7288H93.6889V40.3466H90.6325V45.7288Z" fill="white"/>
</g>
</g>
<g id="Vector_4">
<path d="M140.591 135.685H44.77C43.6955 135.685 42.8359 134.814 42.8359 133.752C42.8359 132.678 43.7075 131.818 44.77 131.818H140.579C141.654 131.818 142.513 132.69 142.513 133.752C142.525 134.814 141.654 135.685 140.591 135.685Z" fill="white"/>
<path d="M140.591 135.685H44.77C43.6955 135.685 42.8359 134.814 42.8359 133.752C42.8359 132.678 43.7075 131.818 44.77 131.818H140.579C141.654 131.818 142.513 132.69 142.513 133.752C142.525 134.814 141.654 135.685 140.591 135.685Z" fill="white"/>
</g>
</g>
</g>
</g>
</svg>
