<svg width="175" height="175" viewBox="0 0 175 175" fill="none" xmlns="http://www.w3.org/2000/svg">
<g id="Mangr boton">
<g id="Mangr menu Fondo">
<rect id="Rectangle 9" opacity="0.2" x="5" y="5" width="165" height="165" rx="24" stroke="white" stroke-width="10"/>
</g>
<g id="Mangr ico">
<path id="Vector" d="M95.0143 96.7652C95.0143 100.653 95.0143 98.3852 95.0143 102.273C95.9031 102.273 96.792 102.273 97.6808 102.273C98.7312 102.273 99.7816 102.273 100.832 102.273C104.145 102.354 106.569 104.055 107.781 107.133C107.862 107.376 107.942 107.619 108.104 107.862C116.992 107.862 119.82 107.862 128.87 107.862C128.87 107.214 128.95 106.566 128.95 105.999C129.031 104.136 129.516 103.65 131.374 103.65C132.829 103.65 134.283 103.65 135.657 103.65C137.354 103.65 138 104.217 138 105.999C138 111.103 138 116.125 138 121.228C138 126.169 138 131.11 138 135.97C138 137.914 137.434 138.481 135.495 138.481C134.041 138.481 132.586 138.481 131.213 138.481C129.435 138.481 128.95 137.914 128.87 136.132C128.87 135.565 128.87 135.079 128.87 134.35C119.901 134.35 116.911 134.35 107.942 134.35C107.862 134.593 107.7 134.836 107.619 135.16C106.407 138.157 104.064 139.858 100.832 139.939C91.944 140.02 83.056 140.02 74.168 139.939C70.936 139.939 68.6736 138.238 67.3808 135.241C67.3 134.998 67.1384 134.674 66.9768 134.35C58.0888 134.35 55.18 134.35 46.0496 134.35C46.0496 135.16 46.0496 135.889 46.0496 136.618C45.9688 137.995 45.4032 138.562 43.9488 138.562C42.3328 138.562 40.7976 138.562 39.1816 138.562C37.5656 138.562 37 137.995 37 136.294C37 132.001 37 127.627 37 123.334C37 117.664 37 111.994 37 106.323C37 104.298 37.5656 103.812 39.5856 103.812C41.04 103.812 42.4944 103.812 43.868 103.812C45.484 103.812 45.9688 104.379 46.0496 105.999C46.0496 106.647 46.0496 107.295 46.0496 108.024C55.0184 108.024 57.9272 108.024 66.896 108.024C66.9768 107.943 67.0575 107.781 67.1383 107.619C68.6735 103.974 70.8551 102.435 74.8143 102.435C76.5111 102.435 78.208 102.435 79.9856 102.435C79.9856 98.6282 79.9856 100.896 79.9856 96.9272C79.2584 96.9272 78.5312 96.9272 77.8848 96.9272C76.3496 96.8462 75.8648 96.3602 75.784 94.8211C75.784 93.2011 75.7032 91.662 75.784 90.042C75.784 89.151 75.5416 88.665 74.6528 88.179C63.9872 82.5088 58.412 73.5986 58.412 61.5293C58.412 47.0299 69.724 34.7986 84.1872 33.1786C98.8928 31.5585 112.386 41.1168 115.699 55.5351C118.689 68.5765 112.386 82.0228 100.347 88.098C99.3776 88.584 98.9735 89.151 99.0543 90.285C99.1351 91.7431 99.1351 93.2821 99.0543 94.7401C99.0543 96.3602 98.4888 96.8462 96.8728 96.9272C96.4688 96.7652 95.8223 96.7652 95.0143 96.7652ZM87.7423 105.594C83.4599 105.594 79.1776 105.594 74.976 105.594C71.9056 105.594 70.3703 107.133 70.3703 110.131C70.3703 117.421 70.3703 124.63 70.3703 131.92C70.3703 134.917 71.9864 136.537 74.976 136.537C83.3792 136.537 91.8631 136.537 100.266 136.537C103.256 136.537 104.872 134.917 104.872 131.92C104.872 124.63 104.872 117.421 104.872 110.131C104.872 107.052 103.337 105.594 100.266 105.594C96.0647 105.594 91.8631 105.594 87.7423 105.594ZM66.896 111.427C57.9272 111.427 55.18 111.427 46.292 111.427C46.292 117.907 46.292 124.306 46.292 130.705C55.18 130.705 58.008 130.705 66.896 130.705C66.896 124.225 66.896 117.907 66.896 111.427ZM128.87 111.427C119.982 111.427 117.154 111.427 108.346 111.427C108.346 117.907 108.346 124.306 108.346 130.705C117.234 130.705 120.062 130.705 128.87 130.705C128.87 124.225 128.87 117.826 128.87 111.427ZM87.1768 36.1756C72.956 36.4187 61.5632 48.245 61.8056 62.4203C62.048 76.5147 73.8448 87.936 87.9848 87.6929C102.125 87.4499 113.518 75.6236 113.275 61.3673C113.033 47.3539 101.236 35.9326 87.1768 36.1756ZM91.4592 102.192C91.4592 98.3852 91.4592 100.653 91.4592 96.8462C88.7928 96.8462 86.2072 96.8462 83.6216 96.8462C83.6216 100.653 83.6216 98.3852 83.6216 102.192C86.288 102.192 88.7928 102.192 91.4592 102.192ZM40.5552 135.079C40.9592 135.079 41.2823 135.16 41.6863 135.16C42.0095 135.16 42.3328 135.16 42.7368 135.079C42.7368 125.683 42.7368 116.449 42.7368 107.133C42.0096 107.133 41.2824 107.133 40.5552 107.133C40.5552 116.53 40.5552 125.764 40.5552 135.079ZM134.606 135.16C134.606 125.764 134.606 116.53 134.606 107.214C133.798 107.214 133.152 107.214 132.425 107.214C132.425 116.611 132.425 125.845 132.425 135.16C133.152 135.16 133.798 135.16 134.606 135.16ZM95.7416 93.3631C95.7416 92.1481 95.7416 91.095 95.7416 89.961C90.2472 91.419 84.8336 91.419 79.3392 89.961C79.3392 91.176 79.3392 92.2291 79.3392 93.3631C84.8336 93.3631 90.2472 93.3631 95.7416 93.3631Z" fill="white"/>
<path id="Vector_2" d="M99.1355 125.44C99.1355 124.468 99.1355 123.577 99.1355 122.605C99.2163 121.39 99.8627 120.661 100.752 120.661C101.64 120.661 102.448 121.39 102.448 122.524C102.529 124.468 102.529 126.412 102.448 128.275C102.448 129.49 101.721 130.138 100.752 130.138C99.7819 130.138 99.2163 129.49 99.1355 128.275C99.0547 127.303 99.1355 126.412 99.1355 125.44Z" fill="white"/>
<path id="Vector_3" d="M110.931 62.0155C110.931 74.7328 100.427 85.3441 87.7418 85.3441C74.8946 85.3441 64.3098 74.8948 64.229 62.0965C64.1482 49.1362 74.6522 38.5249 87.661 38.5249C100.427 38.5249 110.851 49.0552 110.931 62.0155ZM71.1778 73.4368C75.4602 79.1879 81.0354 82.104 88.065 81.942C94.6098 81.78 99.8618 78.8639 103.821 73.4368C102.205 72.1407 101.882 71.4117 102.367 70.5207C103.255 69.1437 104.387 69.8727 105.599 70.2777C106.568 68.0906 107.215 65.9846 107.295 63.7165C105.275 63.3925 104.629 62.9875 104.629 61.9345C104.629 60.1524 106.164 60.3144 107.376 59.9904C107.053 57.7224 106.649 55.5353 105.518 53.5103C104.387 53.9963 103.175 54.7253 102.367 53.3483C101.478 51.8902 102.851 51.1612 103.902 50.2702C102.205 48.6502 100.67 47.0301 99.0538 45.4101C98.0842 46.4631 97.5994 47.8401 96.0642 47.0301C94.529 46.1391 95.4986 44.9241 95.8218 43.709C93.6402 42.899 91.5394 42.008 89.277 42.089C89.0346 44.033 88.6306 44.6811 87.661 44.6811C85.8834 44.7621 85.9642 43.223 85.7218 42.008C83.3786 42.089 81.2778 42.818 79.0962 43.709C79.581 44.9241 80.2274 46.0581 79.0154 46.8681C77.561 47.7591 76.8338 46.5441 75.8642 45.4101C74.2482 47.0301 72.6322 48.6502 71.097 50.1892C72.7938 51.7282 73.1978 52.4573 72.6322 53.2673C71.7434 54.6443 70.5314 53.9153 69.4002 53.5103C68.4306 55.6973 67.7842 57.8034 67.6226 60.0714C69.5618 60.3144 70.3698 60.8005 70.289 61.8535C70.2082 63.4735 68.8346 63.4735 67.6226 63.6355C67.7842 65.9846 68.3498 68.1716 69.3194 70.1967C71.3394 69.4677 72.1474 69.6297 72.6322 70.6017C73.117 71.5737 72.7938 72.3027 71.1778 73.4368Z" fill="white"/>
<path id="Vector_4" d="M87.2577 66.4703C85.8033 66.3083 84.4297 65.6603 83.6217 64.1212C82.8137 62.5822 82.8136 61.0432 83.7024 59.5851C84.1064 58.9371 84.5913 58.3701 85.1569 57.8841C87.1769 55.859 89.2776 53.915 91.3784 51.8899C92.0248 51.2419 92.8329 50.9179 93.6409 51.4039C94.5297 51.8899 94.6105 52.7 94.3681 53.591C93.5601 56.7501 92.8329 59.9901 91.8633 63.0682C91.2977 65.2553 89.5201 66.5513 87.2577 66.4703ZM89.8433 58.4511C89.6817 58.3701 89.6009 58.2891 89.4393 58.2081C88.4697 59.1801 87.5001 60.1521 86.6921 61.2052C86.2073 61.8532 86.2881 62.5822 87.0961 62.9872C87.8233 63.3922 88.3889 63.0682 88.6313 62.3392C89.0353 61.0432 89.4393 59.7471 89.8433 58.4511Z" fill="white"/>
<path id="Vector_5" d="M87.5816 74.8943C85.7232 74.8943 83.9455 74.8943 82.0871 74.8943C80.7943 74.8943 79.9864 73.8413 80.3096 72.7073C80.552 71.8973 81.1983 71.5732 82.0063 71.5732C85.7231 71.5732 89.44 71.5732 93.1568 71.5732C94.288 71.5732 94.8535 72.2213 94.9343 73.1933C94.9343 74.1653 94.288 74.8943 93.076 74.8943C91.2176 74.9753 89.3592 74.8943 87.5816 74.8943Z" fill="white"/>
</g>
</g>
</svg>
