<svg width="200" height="200" viewBox="0 0 200 200" fill="none" xmlns="http://www.w3.org/2000/svg">
<g id="Mangr boton">
<g id="Mangr menu Fondo">
<rect id="Rectangle 8" width="200" height="200" rx="29" fill="white"/>
</g>
<g id="Mangr ico">
<g id="Group">
<g id="Group_2">
<path id="Vector" d="M115.856 164.312H89.4993C84.8695 164.312 81.1088 160.569 81.1088 155.962C81.1088 151.354 84.8695 147.611 89.4993 147.611H89.8628C88.5829 147.124 87.6822 145.897 87.6822 144.466V141.903H77.1426C76.9214 144.529 74.6934 146.589 71.9914 146.589H70.9327C68.0884 146.589 65.7656 144.277 65.7656 141.447V130.957C65.7656 128.127 68.0884 125.815 70.9327 125.815H71.9914C74.8356 125.815 77.1584 128.127 77.1584 130.957V131.067H87.6822V126.287C87.6822 124.431 89.1991 122.921 91.0637 122.921H94.6348V117.197H87.3819C85.707 117.197 84.3323 115.845 84.3323 114.162V106.425C84.3323 104.758 85.6912 103.39 87.3819 103.39H94.6348V95.2435H82.9418C82.7205 97.8698 80.4925 99.9299 77.7905 99.9299H76.7318C73.8875 99.9299 71.5647 97.6182 71.5647 94.7875V84.2982C71.5647 81.4676 73.8875 79.1558 76.7318 79.1558H77.7905C80.6347 79.1558 82.9576 81.4676 82.9576 84.2982V84.4083H94.6348V78.3224C94.6348 76.8441 95.8357 75.6489 97.321 75.6489H108.05C109.536 75.6489 110.736 76.8441 110.736 78.3224V84.4083H123.804V84.2982C123.804 81.4676 126.127 79.1558 128.971 79.1558H130.03C132.874 79.1558 135.197 81.4676 135.197 84.2982V94.7875C135.197 97.6182 132.874 99.9299 130.03 99.9299H128.971C126.269 99.9299 124.057 97.8698 123.82 95.2435H110.721V103.39H117.973C119.648 103.39 121.023 104.742 121.023 106.425V114.162C121.023 115.829 119.664 117.197 117.973 117.197H110.721V122.921H114.292C116.156 122.921 117.673 124.431 117.673 126.287V131.067H129.588V130.957C129.588 128.127 131.91 125.815 134.755 125.815H135.813C138.658 125.815 140.98 128.127 140.98 130.957V141.447C140.98 144.277 138.658 146.589 135.813 146.589H134.755C132.053 146.589 129.84 144.529 129.603 141.903H117.673V144.466C117.673 145.897 116.757 147.124 115.493 147.611H115.856C120.486 147.611 124.247 151.354 124.247 155.962C124.247 160.554 120.486 164.312 115.856 164.312ZM89.4993 151.779C87.1765 151.779 85.2962 153.65 85.2962 155.962C85.2962 158.273 87.1765 160.145 89.4993 160.145H115.856C118.179 160.145 120.059 158.273 120.059 155.962C120.059 153.65 118.179 151.779 115.856 151.779H106.533V143.664H113.486V137.735H133.775V141.462C133.775 141.981 134.217 142.437 134.755 142.437H135.813C136.351 142.437 136.793 141.997 136.793 141.462V130.973C136.793 130.454 136.351 129.998 135.813 129.998H134.755C134.233 129.998 133.775 130.438 133.775 130.973V135.251H113.486V127.104H106.533V113.045H116.836V107.588H106.533V91.0762H127.976V94.8032C127.976 95.3222 128.418 95.7782 128.955 95.7782H130.014C130.551 95.7782 130.994 95.3379 130.994 94.8032V84.314C130.994 83.795 130.551 83.3389 130.014 83.3389H128.955C128.418 83.3389 127.976 83.7793 127.976 84.314V88.5914H106.533V79.8478H98.8064V88.5914H78.7702V84.314C78.7702 83.795 78.3277 83.3389 77.7905 83.3389H76.7318C76.2104 83.3389 75.7521 83.7793 75.7521 84.314V94.8032C75.7521 95.3222 76.1946 95.7782 76.7318 95.7782H77.7905C78.3277 95.7782 78.7702 95.3379 78.7702 94.8032V91.0762H98.8222V107.557H88.5196V113.014H98.8222V127.073H91.8696V135.219H72.9711V130.942C72.9711 130.423 72.5286 129.967 71.9914 129.967H70.9327C70.4112 129.967 69.953 130.407 69.953 130.942V141.431C69.953 141.95 70.3954 142.406 70.9327 142.406H71.9914C72.5286 142.406 72.9711 141.966 72.9711 141.431V137.735H91.8696V143.664H98.8222V151.779H89.4993V151.779Z" fill="#E0E0E0"/>
<path id="Vector_2" d="M102.676 47.4688C93.7644 47.4688 86.5273 54.687 86.5273 63.5407C86.5273 72.3945 93.7644 79.6127 102.676 79.6127C111.588 79.6127 118.825 72.3945 118.825 63.5407C118.825 54.687 111.588 47.4688 102.676 47.4688ZM100.796 51.4003V62.6915L92.2791 70.1614C91.0465 68.2428 90.3039 65.9783 90.3039 63.5407C90.2881 57.3919 94.8705 52.3124 100.796 51.4003ZM94.7915 72.9606L102.597 66.1198L109.977 73.4639C107.922 74.9578 105.426 75.8857 102.676 75.8857C99.6583 75.8699 96.9405 74.7534 94.7915 72.9606ZM112.631 70.8062L104.557 62.7702V51.4003C110.482 52.3124 115.049 57.3761 115.049 63.5407C115.065 66.2613 114.132 68.7618 112.631 70.8062Z" fill="#E0E0E0"/>
<path id="Vector_3" d="M105.069 51.2588H100.297C98.1792 51.2588 96.4727 49.5446 96.4727 47.4531V39.6372C96.4727 37.5457 98.195 35.8315 100.297 35.8315H105.069C107.186 35.8315 108.893 37.5457 108.893 39.6372V47.4531C108.893 49.5604 107.17 51.2588 105.069 51.2588ZM100.66 47.0914H104.705V39.9989H100.66V47.0914Z" fill="#E0E0E0"/>
</g>
<path id="Vector_4" d="M166.782 165.632H39.9602C38.5381 165.632 37.4004 164.484 37.4004 163.084C37.4004 161.669 38.5539 160.537 39.9602 160.537H166.767C168.189 160.537 169.326 161.685 169.326 163.084C169.342 164.484 168.189 165.632 166.782 165.632Z" fill="#E0E0E0"/>
</g>
</g>
</g>
</svg>
