<svg width="200" height="200" viewBox="0 0 200 200" fill="none" xmlns="http://www.w3.org/2000/svg">
<g id="Mangr boton">
<g id="Mangr menu Fondo">
<rect id="Rectangle 8" width="200" height="200" rx="29" fill="white"/>
</g>
<g id="Mangr ico">
<path id="Vector" d="M110.842 113.603C110.842 118.944 110.842 115.828 110.842 121.17C112.065 121.17 113.288 121.17 114.511 121.17C115.957 121.17 117.402 121.17 118.848 121.17C123.407 121.281 126.743 123.618 128.411 127.847C128.522 128.181 128.634 128.515 128.856 128.848C141.088 128.848 144.98 128.848 157.434 128.848C157.434 127.958 157.546 127.068 157.546 126.289C157.657 123.729 158.324 123.062 160.882 123.062C162.883 123.062 164.885 123.062 166.775 123.062C169.11 123.062 170 123.841 170 126.289C170 133.3 170 140.199 170 147.21C170 153.998 170 160.787 170 167.464C170 170.134 169.222 170.913 166.553 170.913C164.551 170.913 162.55 170.913 160.659 170.913C158.213 170.913 157.546 170.134 157.434 167.686C157.434 166.907 157.434 166.24 157.434 165.238C145.091 165.238 140.977 165.238 128.634 165.238C128.522 165.572 128.3 165.906 128.189 166.351C126.521 170.468 123.296 172.805 118.848 172.917C106.616 173.028 94.384 173.028 82.152 172.917C77.704 172.917 74.5904 170.58 72.8112 166.462C72.7 166.128 72.4776 165.683 72.2552 165.238C60.0232 165.238 56.0199 165.238 43.4543 165.238C43.4543 166.351 43.4543 167.352 43.4543 168.354C43.3431 170.246 42.5648 171.025 40.5632 171.025C38.3392 171.025 36.2263 171.025 34.0023 171.025C31.7783 171.025 31 170.246 31 167.909C31 162.011 31 156.002 31 150.103C31 142.314 31 134.524 31 126.734C31 123.952 31.7783 123.284 34.5583 123.284C36.5599 123.284 38.5616 123.284 40.452 123.284C42.676 123.284 43.3431 124.063 43.4543 126.289C43.4543 127.179 43.4543 128.069 43.4543 129.071C55.7975 129.071 59.8008 129.071 72.144 129.071C72.2552 128.96 72.3663 128.737 72.4775 128.515C74.5903 123.507 77.5927 121.392 83.0415 121.392C85.3767 121.392 87.7119 121.392 90.1583 121.392C90.1583 116.162 90.1583 119.278 90.1583 113.825C89.1575 113.825 88.1568 113.825 87.2672 113.825C85.1544 113.714 84.4872 113.046 84.376 110.932C84.376 108.706 84.2648 106.592 84.376 104.366C84.376 103.142 84.0424 102.474 82.8192 101.807C68.1408 94.0168 60.468 81.7756 60.468 65.1944C60.468 45.2748 76.036 28.471 95.9408 26.2453C116.179 24.0197 134.75 37.1511 139.309 56.9595C143.423 74.8761 134.75 93.3491 118.181 101.695C116.846 102.363 116.29 103.142 116.402 104.7C116.513 106.703 116.513 108.817 116.402 110.821C116.402 113.046 115.623 113.714 113.399 113.825C112.843 113.603 111.954 113.603 110.842 113.603ZM100.834 125.732C94.9399 125.732 89.0464 125.732 83.264 125.732C79.0384 125.732 76.9255 127.847 76.9255 131.964C76.9255 141.98 76.9255 151.884 76.9255 161.9C76.9255 166.017 79.1496 168.243 83.264 168.243C94.8288 168.243 106.505 168.243 118.07 168.243C122.184 168.243 124.408 166.017 124.408 161.9C124.408 151.884 124.408 141.98 124.408 131.964C124.408 127.736 122.295 125.732 118.07 125.732C112.287 125.732 106.505 125.732 100.834 125.732ZM72.144 133.745C59.8008 133.745 56.02 133.745 43.788 133.745C43.788 142.648 43.788 151.439 43.788 160.23C56.02 160.23 59.912 160.23 72.144 160.23C72.144 151.328 72.144 142.648 72.144 133.745ZM157.434 133.745C145.202 133.745 141.31 133.745 129.19 133.745C129.19 142.648 129.19 151.439 129.19 160.23C141.422 160.23 145.314 160.23 157.434 160.23C157.434 151.328 157.434 142.536 157.434 133.745ZM100.055 30.3628C80.484 30.6967 64.8047 46.944 65.1383 66.4186C65.4719 85.7818 81.7072 101.473 101.167 101.139C120.627 100.805 136.306 84.5577 135.973 64.9719C135.639 45.7199 119.404 30.029 100.055 30.3628ZM105.949 121.059C105.949 115.828 105.949 118.944 105.949 113.714C102.279 113.714 98.7207 113.714 95.1623 113.714C95.1623 118.944 95.1623 115.828 95.1623 121.059C98.8319 121.059 102.279 121.059 105.949 121.059ZM35.8928 166.24C36.4488 166.24 36.8935 166.351 37.4495 166.351C37.8943 166.351 38.3392 166.351 38.8952 166.24C38.8952 153.331 38.8952 140.644 38.8952 127.847C37.8944 127.847 36.8936 127.847 35.8928 127.847C35.8928 140.756 35.8928 153.442 35.8928 166.24ZM165.33 166.351C165.33 153.442 165.33 140.756 165.33 127.958C164.218 127.958 163.328 127.958 162.327 127.958C162.327 140.867 162.327 153.553 162.327 166.351C163.328 166.351 164.218 166.351 165.33 166.351ZM111.842 108.929C111.842 107.259 111.842 105.813 111.842 104.255C104.281 106.258 96.8304 106.258 89.2688 104.255C89.2688 105.924 89.2688 107.371 89.2688 108.929C96.8304 108.929 104.281 108.929 111.842 108.929Z" fill="#E0E0E0"/>
<path id="Vector_2" d="M116.512 152.997C116.512 151.661 116.512 150.437 116.512 149.102C116.624 147.433 117.513 146.431 118.736 146.431C119.96 146.431 121.071 147.433 121.071 148.991C121.183 151.661 121.183 154.332 121.071 156.892C121.071 158.561 120.071 159.451 118.736 159.451C117.402 159.451 116.624 158.561 116.512 156.892C116.401 155.556 116.512 154.332 116.512 152.997Z" fill="#E0E0E0"/>
<path id="Vector_3" d="M132.747 65.8624C132.747 83.3339 118.291 97.912 100.832 97.912C83.1517 97.912 68.5845 83.5565 68.4733 65.9737C68.3621 48.1684 82.8181 33.5903 100.721 33.5903C118.291 33.5903 132.636 48.0571 132.747 65.8624ZM78.0365 81.5534C83.9301 89.4545 91.6029 93.4607 101.277 93.2381C110.284 93.0155 117.512 89.0093 122.961 81.5534C120.737 79.7728 120.293 78.7713 120.96 77.5472C122.183 75.6554 123.74 76.6569 125.408 77.2133C126.742 74.2087 127.632 71.3153 127.743 68.1994C124.963 67.7543 124.073 67.1978 124.073 65.7512C124.073 63.3029 126.186 63.5255 127.854 63.0804C127.409 59.9644 126.853 56.9598 125.296 54.1777C123.74 54.8454 122.072 55.847 120.96 53.9551C119.737 51.9521 121.627 50.9505 123.072 49.7264C120.737 47.5007 118.624 45.2751 116.4 43.0494C115.066 44.4961 114.399 46.3879 112.286 45.2751C110.173 44.0509 111.508 42.3817 111.952 40.7125C108.95 39.5996 106.059 38.3755 102.945 38.4868C102.612 41.1576 102.056 42.0479 100.721 42.0479C98.2749 42.1591 98.3861 40.0448 98.0525 38.3755C94.8277 38.4868 91.9365 39.4883 88.9341 40.7125C89.6013 42.3817 90.4909 43.9397 88.8229 45.0525C86.8213 46.2766 85.8205 44.6074 84.4861 43.0494C82.2621 45.2751 80.0381 47.5007 77.9253 49.6151C80.2605 51.7295 80.8165 52.731 80.0381 53.8439C78.8149 55.7357 77.1469 54.7341 75.5901 54.1777C74.2557 57.1824 73.3662 60.0757 73.1438 63.1917C75.8126 63.5255 76.9245 64.1932 76.8133 65.6399C76.7021 67.8655 74.8118 67.8655 73.1438 68.0881C73.3662 71.3153 74.1445 74.32 75.4789 77.102C78.2589 76.1005 79.3709 76.3231 80.0381 77.6585C80.7053 78.9939 80.2605 79.9954 78.0365 81.5534Z" fill="#E0E0E0"/>
<path id="Vector_4" d="M100.166 71.9826C98.1648 71.76 96.2744 70.8697 95.1624 68.7553C94.0504 66.641 94.0504 64.5266 95.2736 62.5235C95.8296 61.6332 96.4968 60.8542 97.2752 60.1865C100.055 57.4045 102.946 54.7337 105.838 51.9516C106.727 51.0613 107.839 50.6162 108.951 51.2839C110.174 51.9516 110.286 53.0644 109.952 54.2885C108.84 58.6286 107.839 63.0799 106.505 67.3087C105.726 70.3133 103.28 72.0938 100.166 71.9826ZM103.725 60.9655C103.502 60.8542 103.391 60.743 103.169 60.6317C101.834 61.9671 100.5 63.3025 99.3881 64.7492C98.7209 65.6394 98.8321 66.641 99.9441 67.1974C100.945 67.7538 101.723 67.3087 102.057 66.3071C102.613 64.5266 103.169 62.7461 103.725 60.9655Z" fill="#E0E0E0"/>
<path id="Vector_5" d="M100.612 83.5563C98.0543 83.5563 95.6079 83.5563 93.0503 83.5563C91.2711 83.5563 90.1591 82.1096 90.6039 80.5516C90.9375 79.4388 91.8271 78.9937 92.9391 78.9937C98.0543 78.9937 103.17 78.9937 108.285 78.9937C109.842 78.9937 110.62 79.8839 110.731 81.2193C110.731 82.5547 109.842 83.5563 108.174 83.5563C105.616 83.6675 103.058 83.5563 100.612 83.5563Z" fill="#E0E0E0"/>
</g>
</g>
</svg>
