<svg width="200" height="200" viewBox="0 0 200 200" fill="none" xmlns="http://www.w3.org/2000/svg">
<g id="Mangr boton">
<g id="Mangr menu Fondo">
<rect id="Rectangle 8" width="200" height="200" rx="29" fill="white"/>
</g>
<g id="Mangr ico">
<path id="Vector" d="M100.549 143.529C100.549 145.303 100.648 146.978 100.549 148.752C100.352 151.413 99.2668 152.497 96.7026 152.596C92.5603 152.695 88.4181 152.695 84.2759 152.596C81.8103 152.497 80.7255 151.413 80.5282 149.048C80.4296 148.259 80.5282 147.569 80.5282 146.781C80.5282 128.055 80.5282 109.329 80.5282 90.7009C80.5282 89.9124 80.5282 89.1239 80.5282 88.434C80.7255 86.1672 81.8103 84.8859 83.9801 84.8859C88.3196 84.7873 92.659 84.7873 96.9985 84.8859C99.0696 84.9844 100.154 86.1672 100.45 88.1383C100.549 89.1239 100.549 90.1095 100.549 91.0951C100.549 104.006 100.549 117.016 100.549 129.927C100.549 131.11 100.549 132.293 100.549 133.476C100.746 133.476 100.845 133.476 101.042 133.574C101.239 132.884 101.338 132.096 101.535 131.406C102.423 128.843 102.916 125.985 104.395 123.817C106.861 120.071 107.157 116.228 107.058 112.088C106.96 98.5856 107.058 70.2991 107.058 56.7965C107.058 55.811 107.058 54.8254 107.157 53.8398C107.354 52.0657 108.34 50.9816 110.116 50.883C114.751 50.7844 119.485 50.7844 124.12 50.883C125.896 50.883 126.882 52.0657 126.98 53.8398C127.079 54.7268 126.98 55.6138 126.98 56.4023C126.98 66.6525 126.98 91.5879 126.98 101.838C126.98 103.021 126.98 104.203 126.98 105.583C129.347 105.288 131.221 105.091 133.391 104.795C133.391 103.514 133.391 102.331 133.391 101.148C133.391 85.083 133.391 54.1355 133.391 38.0703C133.391 33.8323 134.18 33.0438 138.224 33.0438C141.971 33.0438 145.62 32.9452 149.368 33.0438C152.327 33.1424 153.214 34.0294 153.412 36.9862C153.412 37.8732 153.412 38.7602 153.412 39.5487C153.412 57.0922 153.412 89.321 153.412 106.865C153.412 108.047 153.412 109.23 153.412 110.61C160.907 116.228 165.838 123.521 167.515 132.884C168.699 139.98 167.712 146.781 164.556 153.187C158.442 165.803 144.634 173.293 131.024 171.815C118.597 170.534 104.691 162.255 100.549 143.529ZM107.65 138.601C107.65 153.187 119.485 165.212 134.18 165.31C148.875 165.409 161.006 153.384 161.105 138.601C161.203 123.817 149.27 111.891 134.377 111.793C119.485 111.793 107.65 123.718 107.65 138.601ZM140.196 39.9429C140.196 56.9937 140.196 88.5326 140.196 105.386C142.267 105.978 144.24 106.47 146.212 106.963C146.212 89.4196 146.212 57.2893 146.212 39.9429C144.141 39.9429 142.366 39.9429 140.196 39.9429ZM87.7277 91.6865C87.0374 95.3332 87.1361 143.233 87.9251 145.894C89.1086 145.894 90.3906 145.894 91.7713 145.894C92.2644 145.894 92.8562 145.795 93.6452 145.697C93.6452 127.661 93.6452 109.723 93.6452 91.6865C91.2782 91.6865 89.503 91.6865 87.7277 91.6865ZM113.863 57.4865C113.863 70.7919 113.863 98.487 113.863 111.694C116.033 110.413 118.005 109.23 119.879 108.146C119.879 96.1216 119.879 69.5107 119.879 57.4865C117.808 57.4865 115.934 57.4865 113.863 57.4865Z" fill="#E0E0E0"/>
<path id="Vector_2" d="M73.8216 122.437C73.8216 130.617 73.8216 138.699 73.8216 146.88C73.8216 151.413 72.8354 152.3 68.2001 152.399C64.9455 152.399 61.6908 152.399 58.4362 152.399C54.8857 152.3 53.8008 151.216 53.8008 147.668C53.8008 130.815 53.8008 113.961 53.8008 97.1074C53.8008 93.5592 54.9843 92.4751 58.5348 92.4751C62.0853 92.4751 65.7344 92.4751 69.2849 92.4751C72.6382 92.4751 73.723 93.6578 73.8216 97.0088C73.8216 105.485 73.8216 113.961 73.8216 122.437ZM66.7207 145.697C66.7207 130.125 66.7207 114.848 66.7207 99.3742C64.6496 99.3742 62.8743 99.3742 60.9018 99.3742C60.9018 114.848 60.9018 130.223 60.9018 145.697C62.7757 145.697 64.551 145.697 66.7207 145.697Z" fill="#E0E0E0"/>
<path id="Vector_3" d="M47.0948 136.925C47.0948 140.473 47.0948 144.12 47.0948 147.668C47.0948 151.216 45.9113 152.3 42.3608 152.399C38.8103 152.497 35.1612 152.497 31.6107 152.399C28.2574 152.3 27.074 151.216 27.074 147.865C26.9753 140.572 26.9753 133.377 27.074 126.084C27.074 122.733 28.2574 121.648 31.6107 121.648C35.1612 121.648 38.8103 121.648 42.3608 121.648C46.1085 121.648 46.9962 122.634 47.0948 126.281C47.0948 129.73 47.0948 133.377 47.0948 136.925ZM34.0763 128.35C34.0763 134.264 34.0763 139.882 34.0763 145.697C36.1474 145.697 38.0214 145.697 40.0925 145.697C40.0925 139.882 40.0925 134.165 40.0925 128.35C38.0214 128.35 36.1474 128.35 34.0763 128.35Z" fill="#E0E0E0"/>
<path id="Vector_4" d="M138.619 157.031C138.126 160.776 137.041 162.156 134.97 162.156C132.998 162.156 132.011 160.974 131.321 157.524C129.842 156.637 128.264 155.848 126.982 154.764C124.615 152.695 123.332 149.935 123.431 146.682C123.53 144.711 124.614 143.529 126.291 143.331C127.869 143.134 129.447 144.218 129.94 145.894C130.138 146.485 130.039 147.175 130.236 147.767C130.926 149.738 132.899 151.019 134.773 150.822C136.745 150.526 138.422 148.851 138.521 146.88C138.619 144.711 137.238 142.937 134.97 142.543C133.984 142.346 132.998 142.346 132.11 142.149C127.573 141.163 124.319 137.714 123.628 133.377C122.938 128.548 125.009 124.211 129.25 121.846C129.94 121.451 130.631 121.156 131.42 120.761C132.011 119.086 131.321 116.721 133.294 115.636C133.885 115.242 134.773 115.144 135.463 115.144C137.633 115.242 138.323 116.523 138.718 120.761C140.296 122.141 141.874 123.324 143.156 124.802C144.833 126.675 145.523 128.942 145.424 131.406C145.424 133.278 144.241 134.56 142.466 134.757C140.789 134.954 139.31 133.968 138.718 132.293C138.521 131.701 138.619 131.012 138.422 130.42C137.83 128.449 135.858 127.069 133.984 127.365C131.913 127.562 130.137 129.435 130.137 131.603C130.137 133.673 131.42 135.25 133.589 135.742C134.477 135.94 135.266 135.94 136.154 136.137C140.789 136.925 143.748 139.685 145.03 144.218C146.312 148.752 144.537 153.187 140.69 155.947C140 156.243 139.31 156.637 138.619 157.031Z" fill="#E0E0E0"/>
</g>
</g>
</svg>
