<svg width="200" height="200" viewBox="0 0 200 200" fill="none" xmlns="http://www.w3.org/2000/svg">
<g id="Mangr boton">
<g id="Mangr menu Fondo">
<rect id="Rectangle 8" width="200" height="200" rx="29" fill="white"/>
</g>
<g id="Mangr ico">
<g id="Frame" clip-path="url(#clip0_66_17318)">
<path id="Vector" d="M185.479 130.062C185.176 127.653 184.772 125.244 183.964 122.935C181.742 116.812 176.793 113.299 170.935 110.991C167.703 109.786 164.37 108.883 161.138 107.979C159.522 107.478 158.007 106.875 157.805 105.069C160.431 102.559 163.057 100.351 165.38 97.8416C170.228 92.4214 173.763 86.1982 174.167 78.7706C174.369 73.9526 174.066 69.0343 173.965 64.116C173.864 60.4021 172.753 56.7886 171.44 53.2756C166.693 41.331 154.674 33 141.847 33C128.717 33 116.9 41.1303 112.052 53.2756C111.547 54.5804 111.042 55.9857 110.436 57.4913C103.87 55.3834 97.5075 55.3834 91.0435 57.5916C90.3365 55.8853 89.8315 54.3797 89.3265 52.9744C82.7615 36.4127 63.2684 28.4832 47.0074 35.8105C35.7964 40.9295 29.7364 49.9632 28.0194 61.9077C27.4134 66.1234 27.6154 70.4395 27.4134 74.7556C26.9084 83.8896 30.5444 91.5181 36.5034 98.1428C38.7254 100.552 41.3514 102.76 43.8764 105.169C42.6644 107.377 42.5634 107.377 40.4424 108.08C37.0084 109.084 33.5744 109.987 30.3424 111.191C22.9694 114.102 17.5154 119.021 16.4044 127.251C15.7984 131.567 16.0004 135.984 16.1014 140.4C16.2024 142.809 18.0204 144.716 20.5454 145.218C21.6564 145.419 22.8684 145.519 24.0804 145.519C34.3824 145.519 44.7854 145.519 55.0874 145.519H58.6224C56.4004 151.14 56.8044 156.46 56.9054 161.88C56.9054 163.286 57.4104 164.791 58.1174 165.996C59.2284 167.903 61.3494 168.505 63.4704 168.505C73.0654 168.505 82.7615 168.505 92.3565 168.505C93.1645 168.505 93.9725 168.405 94.6795 168.103C96.2955 167.501 97.1035 165.996 96.9015 164.39C96.6995 162.884 95.5885 161.78 93.9725 161.479C93.0635 161.378 92.2555 161.378 91.3465 161.378C83.2665 161.378 75.1864 161.378 67.1064 161.378C66.0964 161.378 65.0864 161.278 63.8744 161.278C63.8744 158.166 63.6724 155.456 63.8744 152.746C64.1774 148.43 66.0964 144.817 70.0354 142.608C71.9544 141.504 74.1764 140.701 76.1964 139.798C77.7114 139.095 78.9235 139.396 80.3375 140.199C85.3875 143.211 90.5385 146.122 95.5885 149.133C99.0225 151.14 102.456 151.14 105.891 149.133C109.931 146.724 113.971 144.415 118.112 142.006C123.768 138.694 123.768 138.694 129.626 141.705C130.838 142.307 132.151 143.01 133.06 143.913C134.373 145.319 135.686 146.925 136.393 148.631C138.211 152.646 137.605 156.962 137.504 161.479H134.07C126.495 161.479 118.92 161.479 111.345 161.479C110.436 161.479 109.527 161.479 108.719 161.579C107.204 161.88 106.294 162.784 105.991 164.289C105.688 165.795 106.294 167.1 107.607 167.802C108.517 168.304 109.628 168.505 110.739 168.505C119.829 168.605 128.818 168.605 137.908 168.505C142.453 168.505 144.776 166.096 144.877 161.579C144.877 156.36 145.281 151.04 143.16 145.62H146.796C156.997 145.62 167.299 145.62 177.5 145.62C184.065 145.62 185.883 143.813 185.782 137.188C185.58 134.779 185.782 132.37 185.479 130.062ZM142.655 40.1266C155.482 40.6284 167.097 51.8703 167.198 65.7219C167.097 65.6216 167.198 79.7743 165.38 84.9938C162.047 94.5293 154.371 100.552 144.271 103.061C140.736 103.964 137.504 102.86 134.272 101.455C133.767 101.254 133.262 100.251 133.262 99.6484C133.06 98.1428 133.161 96.5368 133.161 94.9308C133.464 85.1945 131.747 75.9601 125.586 68.1309C125.384 67.9302 125.283 67.8298 125.081 67.629C124.273 66.7257 123.263 66.0231 122.455 65.1197C121.344 64.0156 120.233 62.9115 119.122 61.8074C118.516 61.5062 118.011 61.1047 117.506 60.8036C118.516 50.164 129.323 39.6247 142.655 40.1266ZM154.775 113.299C150.836 115.608 147.099 117.816 143.362 119.924C142.352 120.526 141.342 120.727 140.332 120.125C136.797 118.017 133.262 116.009 129.525 113.801C130.434 111.894 131.141 110.188 132.05 108.18C138.312 110.79 144.574 110.89 150.836 108.381C152.149 109.987 153.361 111.493 154.775 113.299ZM99.8305 63.1122C113.668 63.4133 124.576 73.25 125.687 87.4027C125.586 87.3024 126.495 102.358 125.283 105.972C122.152 114.704 116.092 120.827 107.709 124.742C102.86 126.95 98.0125 126.649 93.1645 124.441C86.4985 121.229 81.4485 116.31 77.9134 109.887C75.4894 105.37 75.4894 92.3211 75.4894 90.9158C75.4894 90.6147 75.6914 88.6072 75.6914 88.005C76.2974 79.7743 82.3575 62.7107 99.8305 63.1122ZM35.9984 84.793C34.3824 81.0792 34.2814 77.1646 34.4834 73.1496C34.2814 72.5474 35.0894 64.116 34.8874 64.116C34.8874 60.0006 36.2004 56.4875 38.1194 53.1752C43.0684 44.543 50.6434 39.8254 60.5414 40.2269C70.5404 40.6284 77.9135 45.7475 82.2565 54.8815C82.7615 55.9857 83.2665 56.9894 83.5695 58.0935C84.1755 60.0006 77.2064 65.6216 75.5904 68.3317C68.1164 77.8672 67.8134 89.3098 68.2174 100.752C62.5614 104.065 57.1074 103.864 51.7544 101.154C44.5834 97.5405 39.3314 92.1203 35.9984 84.793ZM72.0554 113.801C68.3184 116.009 64.6824 118.218 60.8444 120.225C60.2384 120.526 59.0264 120.325 58.3194 120.024C54.4814 117.916 50.7444 115.608 46.8054 113.299C48.2194 111.493 49.3304 110.087 50.6434 108.381C56.9054 110.991 63.1674 110.79 69.4294 108.18C70.3384 110.188 71.1464 111.894 72.0554 113.801ZM81.6505 130.865C78.3175 131.868 74.8834 132.772 71.5504 134.077C69.3284 134.98 67.2074 136.385 65.0864 137.489C64.1774 137.991 63.1674 138.493 62.1574 138.493C49.6334 138.593 37.2104 138.493 24.6864 138.493C24.2824 138.493 23.8784 138.393 23.3734 138.292C23.3734 134.779 23.1714 131.467 23.4744 128.155C23.7774 124.742 25.6964 121.831 28.7264 120.024C31.0494 118.619 33.6754 117.716 36.2004 116.511C37.4124 115.909 38.4224 116.511 39.5334 117.113C44.4824 120.024 49.5324 122.835 54.4814 125.846C58.2184 128.155 61.8544 128.054 65.5914 125.746C69.0254 123.638 72.5604 121.731 75.9944 119.723C78.9235 122.433 81.8525 125.043 84.7815 127.753C84.6805 129.761 83.2665 130.363 81.6505 130.865ZM111.244 137.791C108.416 139.396 105.688 141.002 102.86 142.709C101.749 143.411 100.638 143.813 99.3255 143.01C95.5885 140.802 91.7505 138.493 87.7105 136.185C89.1245 134.478 90.2355 133.073 91.6495 131.266C97.7095 133.776 103.87 133.776 109.931 131.266C111.345 132.973 112.456 134.378 113.769 136.084C112.961 136.686 112.052 137.289 111.244 137.791ZM178.308 138.192C177.5 138.292 176.591 138.393 175.783 138.393C163.865 138.393 152.048 138.393 140.13 138.393C139.019 138.393 137.706 138.192 136.797 137.59C132.656 134.679 127.909 132.973 123.061 131.668C121.748 131.266 120.435 130.865 119.122 130.564C117.809 130.262 117.102 129.459 116.799 127.954C119.728 125.244 122.657 122.634 125.687 119.824C129.121 121.831 132.656 123.738 135.989 125.846C139.827 128.255 143.463 128.155 147.301 125.846C152.149 122.935 157.199 120.225 162.047 117.214C163.461 116.411 164.673 116.11 166.188 116.812C168.309 117.816 170.531 118.619 172.551 119.824C175.884 121.831 177.803 124.842 178.207 128.656C178.51 131.668 178.308 134.88 178.308 138.192Z" fill="#E0E0E0"/>
</g>
</g>
</g>
<defs>
<clipPath id="clip0_66_17318">
<rect width="169.68" height="135.405" fill="white" transform="translate(16 33)"/>
</clipPath>
</defs>
</svg>
